{
    "asset" : {
        "generator" : "Khronos glTF Blender I/O v1.7.33",
        "version" : "2.0"
    },
    "scene" : 0,
    "scenes" : [
        {
            "name" : "Scene",
            "nodes" : [
                0,
                1,
                2,
                3,
                4
            ]
        }
    ],
    "nodes" : [
        {
            "mesh" : 0,
            "name" : "Tunel",
            "scale" : [
                2.623460531234741,
                1.831310510635376,
                1.831310510635376
            ]
        },
        {
            "mesh" : 1,
            "name" : "right",
            "scale" : [
                2.623460531234741,
                1.831310510635376,
                1.831310510635376
            ],
            "translation" : [
                0,
                0,
                -0.009999999776482582
            ]
        },
        {
            "mesh" : 2,
            "name" : "top",
            "scale" : [
                2.623460531234741,
                1.831310510635376,
                1.831310510635376
            ],
            "translation" : [
                0.06182866916060448,
                0,
                0
            ]
        },
        {
            "mesh" : 3,
            "name" : "left",
            "scale" : [
                2.623460531234741,
                1.831310510635376,
                1.831310510635376
            ],
            "translation" : [
                0,
                0,
                0.009999999776482582
            ]
        },
        {
            "mesh" : 4,
            "name" : "bottom",
            "scale" : [
                2.623460531234741,
                1.831310510635376,
                1.831310510635376
            ],
            "translation" : [
                0,
                -0.009999999776482582,
                0
            ]
        }
    ],
    "meshes" : [
        {
            "name" : "Tunel",
            "primitives" : [
                {
                    "attributes" : {
                        "POSITION" : 0,
                        "NORMAL" : 1,
                        "TEXCOORD_0" : 2
                    },
                    "indices" : 3
                }
            ]
        },
        {
            "name" : "Tunel.001",
            "primitives" : [
                {
                    "attributes" : {
                        "POSITION" : 4,
                        "NORMAL" : 5,
                        "TEXCOORD_0" : 6
                    },
                    "indices" : 7
                }
            ]
        },
        {
            "name" : "Tunel.002",
            "primitives" : [
                {
                    "attributes" : {
                        "POSITION" : 8,
                        "NORMAL" : 9,
                        "TEXCOORD_0" : 10
                    },
                    "indices" : 11
                }
            ]
        },
        {
            "name" : "Tunel.003",
            "primitives" : [
                {
                    "attributes" : {
                        "POSITION" : 12,
                        "NORMAL" : 13,
                        "TEXCOORD_0" : 14
                    },
                    "indices" : 11
                }
            ]
        },
        {
            "name" : "Tunel.004",
            "primitives" : [
                {
                    "attributes" : {
                        "POSITION" : 15,
                        "NORMAL" : 16,
                        "TEXCOORD_0" : 17
                    },
                    "indices" : 18
                }
            ]
        }
    ],
    "accessors" : [
        {
            "bufferView" : 0,
            "componentType" : 5126,
            "count" : 512,
            "max" : [
                10.336047172546387,
                1.2501773834228516,
                1.1597874164581299
            ],
            "min" : [
                -1,
                -1.2598830461502075,
                -1.2734787464141846
            ],
            "type" : "VEC3"
        },
        {
            "bufferView" : 1,
            "componentType" : 5126,
            "count" : 512,
            "type" : "VEC3"
        },
        {
            "bufferView" : 2,
            "componentType" : 5126,
            "count" : 512,
            "type" : "VEC2"
        },
        {
            "bufferView" : 3,
            "componentType" : 5123,
            "count" : 768,
            "type" : "SCALAR"
        },
        {
            "bufferView" : 4,
            "componentType" : 5126,
            "count" : 4,
            "max" : [
                -1,
                1,
                0
            ],
            "min" : [
                -1,
                -1,
                -1.2734787464141846
            ],
            "type" : "VEC3"
        },
        {
            "bufferView" : 5,
            "componentType" : 5126,
            "count" : 4,
            "type" : "VEC3"
        },
        {
            "bufferView" : 6,
            "componentType" : 5126,
            "count" : 4,
            "type" : "VEC2"
        },
        {
            "bufferView" : 7,
            "componentType" : 5123,
            "count" : 6,
            "type" : "SCALAR"
        },
        {
            "bufferView" : 8,
            "componentType" : 5126,
            "count" : 4,
            "max" : [
                -0.862923264503479,
                1.2501773834228516,
                1
            ],
            "min" : [
                -1,
                0,
                -1
            ],
            "type" : "VEC3"
        },
        {
            "bufferView" : 9,
            "componentType" : 5126,
            "count" : 4,
            "type" : "VEC3"
        },
        {
            "bufferView" : 10,
            "componentType" : 5126,
            "count" : 4,
            "type" : "VEC2"
        },
        {
            "bufferView" : 11,
            "componentType" : 5123,
            "count" : 6,
            "type" : "SCALAR"
        },
        {
            "bufferView" : 12,
            "componentType" : 5126,
            "count" : 4,
            "max" : [
                -1,
                1,
                1.1597874164581299
            ],
            "min" : [
                -1,
                -1,
                0
            ],
            "type" : "VEC3"
        },
        {
            "bufferView" : 13,
            "componentType" : 5126,
            "count" : 4,
            "type" : "VEC3"
        },
        {
            "bufferView" : 14,
            "componentType" : 5126,
            "count" : 4,
            "type" : "VEC2"
        },
        {
            "bufferView" : 15,
            "componentType" : 5126,
            "count" : 4,
            "max" : [
                -1,
                0,
                1
            ],
            "min" : [
                -1,
                -1.2598830461502075,
                -1
            ],
            "type" : "VEC3"
        },
        {
            "bufferView" : 16,
            "componentType" : 5126,
            "count" : 4,
            "type" : "VEC3"
        },
        {
            "bufferView" : 17,
            "componentType" : 5126,
            "count" : 4,
            "type" : "VEC2"
        },
        {
            "bufferView" : 18,
            "componentType" : 5123,
            "count" : 6,
            "type" : "SCALAR"
        }
    ],
    "bufferViews" : [
        {
            "buffer" : 0,
            "byteLength" : 6144,
            "byteOffset" : 0
        },
        {
            "buffer" : 0,
            "byteLength" : 6144,
            "byteOffset" : 6144
        },
        {
            "buffer" : 0,
            "byteLength" : 4096,
            "byteOffset" : 12288
        },
        {
            "buffer" : 0,
            "byteLength" : 1536,
            "byteOffset" : 16384
        },
        {
            "buffer" : 0,
            "byteLength" : 48,
            "byteOffset" : 17920
        },
        {
            "buffer" : 0,
            "byteLength" : 48,
            "byteOffset" : 17968
        },
        {
            "buffer" : 0,
            "byteLength" : 32,
            "byteOffset" : 18016
        },
        {
            "buffer" : 0,
            "byteLength" : 12,
            "byteOffset" : 18048
        },
        {
            "buffer" : 0,
            "byteLength" : 48,
            "byteOffset" : 18060
        },
        {
            "buffer" : 0,
            "byteLength" : 48,
            "byteOffset" : 18108
        },
        {
            "buffer" : 0,
            "byteLength" : 32,
            "byteOffset" : 18156
        },
        {
            "buffer" : 0,
            "byteLength" : 12,
            "byteOffset" : 18188
        },
        {
            "buffer" : 0,
            "byteLength" : 48,
            "byteOffset" : 18200
        },
        {
            "buffer" : 0,
            "byteLength" : 48,
            "byteOffset" : 18248
        },
        {
            "buffer" : 0,
            "byteLength" : 32,
            "byteOffset" : 18296
        },
        {
            "buffer" : 0,
            "byteLength" : 48,
            "byteOffset" : 18328
        },
        {
            "buffer" : 0,
            "byteLength" : 48,
            "byteOffset" : 18376
        },
        {
            "buffer" : 0,
            "byteLength" : 32,
            "byteOffset" : 18424
        },
        {
            "buffer" : 0,
            "byteLength" : 12,
            "byteOffset" : 18456
        }
    ],
    "buffers" : [
        {
            "byteLength" : 18468,
            "uri" : "data:application/octet-stream;base64,"
        }
    ]
}
