{
    "asset" : {
        "generator" : "Khronos glTF Blender I/O v1.7.33",
        "version" : "2.0"
    },
    "scene" : 0,
    "scenes" : [
        {
            "name" : "Scene",
            "nodes" : [
                0
            ]
        }
    ],
    "nodes" : [
        {
            "mesh" : 0,
            "name" : "Tunel",
            "scale" : [
                2.623460531234741,
                1.831310510635376,
                1.831310510635376
            ]
        }
    ],
    "meshes" : [
        {
            "name" : "Tunel",
            "primitives" : [
                {
                    "attributes" : {
                        "POSITION" : 0,
                        "NORMAL" : 1,
                        "TEXCOORD_0" : 2
                    },
                    "indices" : 3
                }
            ]
        }
    ],
    "accessors" : [
        {
            "bufferView" : 0,
            "componentType" : 5126,
            "count" : 208,
            "max" : [
                8.965580940246582,
                1.2501773834228516,
                1.1597874164581299
            ],
            "min" : [
                -1,
                -1.2598830461502075,
                -1.2734787464141846
            ],
            "type" : "VEC3"
        },
        {
            "bufferView" : 1,
            "componentType" : 5126,
            "count" : 208,
            "type" : "VEC3"
        },
        {
            "bufferView" : 2,
            "componentType" : 5126,
            "count" : 208,
            "type" : "VEC2"
        },
        {
            "bufferView" : 3,
            "componentType" : 5123,
            "count" : 312,
            "type" : "SCALAR"
        }
    ],
    "bufferViews" : [
        {
            "buffer" : 0,
            "byteLength" : 2496,
            "byteOffset" : 0
        },
        {
            "buffer" : 0,
            "byteLength" : 2496,
            "byteOffset" : 2496
        },
        {
            "buffer" : 0,
            "byteLength" : 1664,
            "byteOffset" : 4992
        },
        {
            "buffer" : 0,
            "byteLength" : 624,
            "byteOffset" : 6656
        }
    ],
    "buffers" : [
        {
            "byteLength" : 7280,
            "uri" : "data:application/octet-stream;base64,"
        }
    ]
}
